<?xml version="1.0" encoding="utf-8"?>
<!-- Generator: Adobe Illustrator 28.0.0, SVG Export Plug-In . SVG Version: 6.00 Build 0)  -->
<svg version="1.1" xmlns="http://www.w3.org/2000/svg" xmlns:xlink="http://www.w3.org/1999/xlink" x="0px" y="0px"
	 viewBox="0 0 500 500" style="enable-background:new 0 0 500 500;" xml:space="preserve">
<style type="text/css">
	.st0{fill:url(#SVGID_1_);}
	.st1{fill:#3C444B;}
</style>
<g id="BACKGROUND">
</g>
<g id="OBJECTS">
	<g>
		<radialGradient id="SVGID_1_" cx="246.4133" cy="251.4945" r="342.4999" gradientUnits="userSpaceOnUse">
			<stop  offset="0" style="stop-color:#FFFFFF"/>
			<stop  offset="1" style="stop-color:#C8C8D2"/>
		</radialGradient>
		<circle class="st0" cx="246.41" cy="251.49" r="239.52"/>
		<g>
			<path class="st1" d="M478.68,153.39c-12.5-29.55-30.39-56.1-53.18-78.88c-22.79-22.79-49.33-40.68-78.88-53.18
				C316,8.38,283.5,1.82,250,1.82s-66,6.56-96.61,19.51c-29.55,12.5-56.1,30.39-78.88,53.18s-40.68,49.33-53.18,78.88
				C8.38,184,1.82,216.5,1.82,250s6.56,66,19.51,96.61c12.5,29.55,30.39,56.1,53.18,78.88c22.79,22.79,49.33,40.68,78.88,53.18
				c30.6,12.94,63.11,19.51,96.61,19.51s66-6.56,96.61-19.51c29.55-12.5,56.1-30.39,78.88-53.18
				c22.79-22.79,40.68-49.33,53.18-78.88c12.94-30.6,19.51-63.11,19.51-96.61S491.62,184,478.68,153.39z M422.67,395.51
				c-17.12-26.13-40.04-48.18-66.94-64.26c-31.86-19.05-68.42-29.12-105.73-29.12s-73.87,10.07-105.73,29.12
				c-26.9,16.08-49.82,38.13-66.94,64.26C44.13,356.17,24.1,305.38,24.1,250C24.1,125.44,125.44,24.1,250,24.1
				c124.56,0,225.9,101.34,225.9,225.9C475.9,305.38,455.87,356.17,422.67,395.51z"/>
			<circle class="st1" cx="250" cy="196.53" r="94.46"/>
		</g>
	</g>
</g>
</svg>
